<?xml version="1.0" encoding="UTF-8" standalone="no"?>
<!DOCTYPE svg PUBLIC "-//W3C//DTD SVG 1.1//EN" "http://www.w3.org/Graphics/SVG/1.1/DTD/svg11.dtd">
<!-- Created with Vectornator (http://vectornator.io/) -->
<svg height="100%" stroke-miterlimit="10" style="fill-rule:nonzero;clip-rule:evenodd;stroke-linecap:round;stroke-linejoin:round;" version="1.1" viewBox="306.514 149.837 64.0622 50.8936" width="100%" xml:space="preserve" xmlns="http://www.w3.org/2000/svg" xmlns:vectornator="http://vectornator.io" xmlns:xlink="http://www.w3.org/1999/xlink">
<defs/>
<g id="Layer">
<path d="M315.223 197.413C315.223 197.413 315.223 197.413 315.223 197.413C315.224 197.413 315.224 197.413 315.224 197.413C315.224 197.413 315.224 197.413 315.224 197.413C315.224 197.413 315.225 197.414 315.225 197.414C315.225 197.414 315.225 197.414 315.224 197.415C315.224 197.415 315.223 197.416 315.221 197.416C315.219 197.416 315.216 197.416 315.213 197.415C315.209 197.414 315.205 197.412 315.203 197.408C315.201 197.403 315.201 197.397 315.209 197.389C315.218 197.381 315.235 197.372 315.268 197.368C315.3 197.363 315.35 197.363 315.409 197.382C315.467 197.401 315.538 197.439 315.572 197.512C315.607 197.585 315.606 197.694 315.463 197.825C315.32 197.956 315.027 198.113 314.476 198.189C313.925 198.266 313.091 198.264 312.097 197.946C311.102 197.628 309.914 196.977 309.33 195.75C308.746 194.523 308.768 192.667 311.181 190.454C313.594 188.241 318.539 185.597 327.859 184.298C337.179 182.998 351.272 183.045 368.076 188.416" fill="none" opacity="1" stroke="#09ff00" stroke-linecap="butt" stroke-linejoin="round" stroke-width="5"/>
<g opacity="1">
<text fill="#00ff28" font-family="Apple-Chancery" font-size="44.3017" opacity="1" stroke="none" text-anchor="start" transform="matrix(1 0 0 1 305.545 130.282)" x="0" y="0">
<tspan textLength="59.3573" x="0" y="49.5149"><![CDATA[AC]]></tspan>
</text>
</g>
</g>
</svg>
